M48
; DRILL file {KiCad (6.0.2)} date ned 13 mar 2022 11:06:52
; FORMAT={-:-/ absolute / inch / decimal}
; #@! TF.CreationDate,2022-03-13T11:06:52+01:00
; #@! TF.GenerationSoftware,Kicad,Pcbnew,(6.0.2)
; #@! TF.FileFunction,MixedPlating,1,2
FMAT,2
INCH
; #@! TA.AperFunction,Plated,PTH,ViaDrill
T1C0.0157
; #@! TA.AperFunction,Plated,PTH,ComponentDrill
T2C0.0157
; #@! TA.AperFunction,Plated,PTH,ComponentDrill
T3C0.0197
; #@! TA.AperFunction,Plated,PTH,ComponentDrill
T4C0.0236
; #@! TA.AperFunction,Plated,PTH,ComponentDrill
T5C0.0315
; #@! TA.AperFunction,Plated,PTH,ComponentDrill
T6C0.0354
; #@! TA.AperFunction,Plated,PTH,ComponentDrill
T7C0.0394
; #@! TA.AperFunction,Plated,PTH,ComponentDrill
T8C0.0433
; #@! TA.AperFunction,Plated,PTH,ComponentDrill
T9C0.0472
; #@! TA.AperFunction,Plated,PTH,ComponentDrill
T10C0.0512
; #@! TA.AperFunction,Plated,PTH,ComponentDrill
T11C0.1260
; #@! TA.AperFunction,NonPlated,NPTH,ComponentDrill
T12C0.1378
%
G90
G05
T1
X1.0Y-0.8
X1.0Y-1.3
X1.05Y-0.75
X1.1Y-0.8
X1.1Y-1.3
X1.15Y-0.75
X1.2Y-0.8
X1.2Y-1.3
X1.25Y-0.75
X1.275Y-0.4
X1.3Y-0.8
X1.3Y-1.3
X1.35Y-0.75
X1.35Y-1.35
X1.4Y-0.8
X1.4Y-1.3
X1.45Y-0.75
X1.45Y-1.35
X1.5Y-0.8
X1.5Y-1.3
X1.55Y-0.75
X1.6Y-0.8
X1.65Y-0.75
X1.65Y-0.85
X1.65Y-0.95
X1.65Y-1.05
X1.65Y-1.15
X1.7Y-0.8
X1.7Y-0.9
X1.7Y-1.0
X1.7Y-1.1
X3.6875Y-0.2875
X4.875Y-0.275
X5.125Y-0.45
X5.4Y-0.225
T2
X1.3832Y-0.2969
X1.3832Y-0.35
X1.4167Y-0.2969
X1.4167Y-0.35
X1.4502Y-0.2969
X1.4502Y-0.35
X1.4836Y-0.2969
X1.4836Y-0.35
X1.5171Y-0.2969
X1.5171Y-0.35
X1.5506Y-0.2969
X1.5506Y-0.35
X1.584Y-0.2969
X1.584Y-0.35
X1.6175Y-0.2969
X1.6175Y-0.35
T3
X0.0555Y-0.15
X0.0555Y-2.95
X0.0832Y-0.0832
X0.0832Y-0.2168
X0.0832Y-2.8832
X0.0832Y-3.0168
X0.15Y-0.0555
X0.15Y-0.2445
X0.15Y-2.8555
X0.15Y-3.0445
X0.2168Y-0.0832
X0.2168Y-0.2168
X0.2168Y-2.8832
X0.2168Y-3.0168
X0.2445Y-0.15
X0.2445Y-2.95
X6.55Y-0.75
X6.6248Y-0.75
X6.7555Y-0.15
X6.7555Y-2.95
X6.7832Y-0.0832
X6.7832Y-0.2168
X6.7832Y-2.8832
X6.7832Y-3.0168
X6.85Y-0.0555
X6.85Y-0.2445
X6.85Y-2.8555
X6.85Y-3.0445
X6.9168Y-0.0832
X6.9168Y-0.2168
X6.9168Y-2.8832
X6.9168Y-3.0168
X6.9445Y-0.15
X6.9445Y-2.95
T5
X0.45Y-1.45
X0.45Y-1.85
X0.45Y-2.05
X0.45Y-2.45
X0.4531Y-0.95
X0.4531Y-1.15
X0.65Y-0.95
X0.65Y-1.15
X0.65Y-1.45
X0.65Y-1.85
X0.85Y-1.65
X0.85Y-1.8469
X0.85Y-2.05
X0.85Y-2.2469
X0.95Y-0.15
X0.95Y-0.55
X1.05Y-1.65
X1.05Y-1.75
X1.05Y-1.85
X1.05Y-1.95
X1.05Y-2.05
X1.05Y-2.15
X1.05Y-2.25
X1.05Y-2.45
X1.15Y-0.15
X1.15Y-0.55
X1.15Y-1.45
X1.3469Y-1.45
X1.35Y-1.65
X1.35Y-1.75
X1.35Y-1.85
X1.35Y-1.95
X1.35Y-2.05
X1.35Y-2.15
X1.35Y-2.25
X1.45Y-2.45
X1.55Y-1.65
X1.55Y-1.8469
X1.55Y-2.05
X1.55Y-2.2469
X1.75Y-1.45
X1.75Y-1.85
X1.95Y-0.45
X1.95Y-0.55
X1.95Y-0.65
X1.95Y-0.75
X1.95Y-0.85
X1.95Y-0.95
X1.95Y-1.05
X1.95Y-1.45
X1.95Y-1.85
X1.95Y-2.05
X1.95Y-2.45
X2.05Y-0.25
X2.2469Y-0.25
X2.25Y-0.45
X2.25Y-0.55
X2.25Y-0.65
X2.25Y-0.75
X2.25Y-0.85
X2.25Y-0.95
X2.25Y-1.05
X2.25Y-1.45
X2.25Y-1.85
X2.25Y-2.05
X2.25Y-2.45
X2.45Y-1.45
X2.45Y-1.85
X2.45Y-2.05
X2.45Y-2.45
X2.45Y-2.65
X2.55Y-0.45
X2.55Y-0.55
X2.55Y-0.65
X2.55Y-0.75
X2.55Y-0.85
X2.55Y-0.95
X2.55Y-1.05
X2.65Y-0.25
X2.65Y-1.45
X2.65Y-1.85
X2.65Y-2.05
X2.65Y-2.45
X2.8469Y-0.25
X2.85Y-0.45
X2.85Y-0.55
X2.85Y-0.65
X2.85Y-0.75
X2.85Y-0.85
X2.85Y-0.95
X2.85Y-1.05
X2.85Y-1.45
X2.85Y-1.85
X2.85Y-2.05
X2.85Y-2.45
X2.85Y-2.65
X3.05Y-1.45
X3.05Y-1.85
X3.05Y-2.05
X3.05Y-2.45
X3.15Y-0.45
X3.15Y-0.55
X3.15Y-0.65
X3.15Y-0.75
X3.15Y-0.85
X3.15Y-0.95
X3.15Y-1.05
X3.25Y-0.25
X3.25Y-1.45
X3.25Y-1.85
X3.4469Y-0.25
X3.45Y-0.45
X3.45Y-0.55
X3.45Y-0.65
X3.45Y-0.75
X3.45Y-0.85
X3.45Y-0.95
X3.45Y-1.05
X3.45Y-1.45
X3.45Y-1.85
X3.65Y-1.45
X3.65Y-1.85
X3.65Y-2.65
X3.65Y-2.85
X3.75Y-0.45
X3.75Y-0.55
X3.75Y-0.65
X3.75Y-0.75
X3.75Y-0.85
X3.75Y-0.95
X3.75Y-1.05
X3.75Y-2.75
X3.85Y-0.25
X3.85Y-1.45
X3.85Y-1.85
X3.85Y-2.15
X3.85Y-2.3469
X3.95Y-2.55
X3.95Y-2.95
X4.0469Y-0.25
X4.05Y-0.45
X4.05Y-0.55
X4.05Y-0.65
X4.05Y-0.75
X4.05Y-0.85
X4.05Y-0.95
X4.05Y-1.05
X4.05Y-1.45
X4.05Y-1.85
X4.05Y-2.05
X4.05Y-2.35
X4.15Y-2.05
X4.15Y-2.35
X4.25Y-1.45
X4.25Y-1.85
X4.25Y-2.05
X4.25Y-2.35
X4.35Y-0.45
X4.35Y-0.55
X4.35Y-0.65
X4.35Y-0.75
X4.35Y-0.85
X4.35Y-0.95
X4.35Y-1.05
X4.35Y-2.05
X4.35Y-2.35
X4.45Y-0.25
X4.45Y-1.45
X4.45Y-1.85
X4.45Y-2.05
X4.45Y-2.35
X4.55Y-2.05
X4.55Y-2.35
X4.6469Y-0.25
X4.65Y-0.45
X4.65Y-0.55
X4.65Y-0.65
X4.65Y-0.75
X4.65Y-0.85
X4.65Y-0.95
X4.65Y-1.05
X4.65Y-1.45
X4.65Y-1.85
X4.65Y-2.05
X4.65Y-2.35
X4.75Y-2.65
X4.75Y-2.85
X4.85Y-1.45
X4.85Y-1.85
X4.85Y-2.75
X4.95Y-0.45
X4.95Y-0.55
X4.95Y-0.65
X4.95Y-0.75
X4.95Y-0.85
X4.95Y-0.95
X4.95Y-1.05
X5.05Y-0.25
X5.05Y-1.45
X5.05Y-1.85
X5.05Y-2.55
X5.05Y-2.95
X5.2469Y-0.25
X5.25Y-0.45
X5.25Y-0.55
X5.25Y-0.65
X5.25Y-0.75
X5.25Y-0.85
X5.25Y-0.95
X5.25Y-1.05
X5.25Y-1.45
X5.25Y-1.85
X5.45Y-1.45
X5.45Y-1.85
X5.65Y-0.35
X5.65Y-0.45
X5.65Y-0.55
X5.65Y-0.65
X5.65Y-0.75
X5.65Y-0.85
X5.65Y-0.95
X5.65Y-1.05
X5.65Y-1.45
X5.65Y-1.85
X5.65Y-2.05
X5.65Y-2.45
X5.75Y-0.15
X5.85Y-1.45
X5.85Y-1.85
X5.85Y-2.05
X5.85Y-2.45
X5.9469Y-0.15
X5.95Y-0.35
X5.95Y-0.45
X5.95Y-0.55
X5.95Y-0.65
X5.95Y-0.75
X5.95Y-0.85
X5.95Y-0.95
X5.95Y-1.05
X5.95Y-2.65
X5.95Y-2.85
X6.05Y-1.45
X6.05Y-1.85
X6.05Y-2.05
X6.05Y-2.45
X6.05Y-2.75
X6.15Y-0.15
X6.15Y-0.55
X6.15Y-0.65
X6.15Y-1.05
X6.25Y-1.25
X6.25Y-1.45
X6.25Y-1.85
X6.25Y-2.05
X6.25Y-2.45
X6.25Y-2.65
X6.35Y-0.65
X6.35Y-1.05
X6.45Y-1.45
X6.45Y-1.85
X6.45Y-2.05
X6.45Y-2.45
X6.525Y-0.8531
X6.525Y-1.05
X6.65Y-0.8531
X6.65Y-1.05
X6.65Y-1.25
X6.65Y-1.45
X6.65Y-1.85
X6.65Y-2.05
X6.65Y-2.45
X6.65Y-2.65
T6
X3.55Y-2.15
X3.55Y-2.25
X5.15Y-2.15
X5.15Y-2.25
T7
X1.35Y-0.55
X1.45Y-0.55
X1.55Y-0.55
X1.65Y-0.55
X2.35Y-1.25
X2.55Y-1.25
X2.65Y-1.25
X2.75Y-1.25
X2.85Y-1.25
X2.95Y-1.25
X3.05Y-1.25
X3.25Y-2.05
X3.25Y-2.25
X3.85Y-1.25
X3.95Y-1.25
X4.05Y-1.25
X4.15Y-1.25
X4.25Y-1.25
X4.35Y-1.25
X4.45Y-1.25
X4.65Y-1.25
X4.85Y-1.25
X5.25Y-1.25
X5.35Y-1.25
X5.45Y-0.45
X5.45Y-0.65
X5.45Y-0.75
X5.45Y-1.25
X5.45Y-2.05
X5.55Y-1.25
X5.65Y-1.25
X5.75Y-1.25
X5.85Y-1.25
X6.05Y-1.25
X6.35Y-0.35
X6.35Y-0.45
T8
X0.65Y-2.05
X0.65Y-2.45
X1.75Y-2.05
X1.75Y-2.45
T9
X0.85Y-0.95
X0.85Y-1.05
X0.85Y-1.15
T10
X0.45Y-0.25
X0.45Y-2.85
X0.65Y-0.25
X0.65Y-2.85
X1.15Y-2.85
X1.35Y-2.85
X1.85Y-2.85
X2.05Y-2.85
X3.15Y-2.85
X3.35Y-2.85
X4.25Y-2.85
X4.45Y-2.85
X5.45Y-2.85
X5.65Y-2.85
T11
X0.15Y-0.15
X0.15Y-2.95
X6.85Y-0.15
X6.85Y-2.95
T12
X1.472Y-1.05
T4
G00X1.3301Y-0.1941
M15
G01X1.3301Y-0.1626
M16
G05
G00X1.3301Y-0.3409
M15
G01X1.3301Y-0.2819
M16
G05
G00X1.6706Y-0.1941
M15
G01X1.6706Y-0.1626
M16
G05
G00X1.6706Y-0.3409
M15
G01X1.6706Y-0.2819
M16
G05
T0
M30
