%TF.GenerationSoftware,KiCad,Pcbnew,(6.0.2)*%
%TF.CreationDate,2022-03-13T11:15:41+01:00*%
%TF.ProjectId,TheDAC_v1,54686544-4143-45f7-9631-2e6b69636164,0*%
%TF.SameCoordinates,PX1e47770PY231fb30*%
%TF.FileFunction,Soldermask,Bot*%
%TF.FilePolarity,Negative*%
%FSLAX46Y46*%
G04 Gerber Fmt 4.6, Leading zero omitted, Abs format (unit mm)*
G04 Created by KiCad (PCBNEW (6.0.2)) date 2022-03-13 11:15:41*
%MOMM*%
%LPD*%
G01*
G04 APERTURE LIST*
%ADD10R,1.800000X1.800000*%
%ADD11C,1.800000*%
%ADD12C,1.600000*%
%ADD13O,1.600000X1.600000*%
%ADD14C,2.000000*%
%ADD15R,2.400000X1.600000*%
%ADD16O,2.400000X1.600000*%
%ADD17R,2.600000X2.600000*%
%ADD18C,2.600000*%
%ADD19R,2.200000X2.200000*%
%ADD20O,2.200000X2.200000*%
%ADD21C,1.440000*%
%ADD22C,1.000000*%
%ADD23R,1.700000X1.700000*%
%ADD24O,1.700000X1.700000*%
%ADD25R,1.600000X2.400000*%
%ADD26O,1.600000X2.400000*%
%ADD27C,1.100000*%
%ADD28O,1.300000X2.800000*%
%ADD29O,1.300000X2.100000*%
%ADD30O,3.500000X3.500000*%
%ADD31R,2.000000X1.905000*%
%ADD32O,2.000000X1.905000*%
%ADD33C,0.800000*%
%ADD34C,6.400000*%
G04 APERTURE END LIST*
D10*
%TO.C,D4*%
X130810000Y-54610000D03*
D11*
X130810000Y-57150000D03*
%TD*%
D12*
%TO.C,R1*%
X72390000Y-67310000D03*
D13*
X62230000Y-67310000D03*
%TD*%
D12*
%TO.C,R2*%
X36830000Y-62230000D03*
D13*
X26670000Y-62230000D03*
%TD*%
D12*
%TO.C,R25*%
X77470000Y-46990000D03*
D13*
X77470000Y-36830000D03*
%TD*%
D12*
%TO.C,R26*%
X72390000Y-46990000D03*
D13*
X72390000Y-36830000D03*
%TD*%
D12*
%TO.C,R27*%
X67310000Y-46990000D03*
D13*
X67310000Y-36830000D03*
%TD*%
D12*
%TO.C,R28*%
X62230000Y-46990000D03*
D13*
X62230000Y-36830000D03*
%TD*%
D12*
%TO.C,R29*%
X57150000Y-46990000D03*
D13*
X57150000Y-36830000D03*
%TD*%
D12*
%TO.C,R40*%
X72390000Y-62230000D03*
D13*
X72390000Y-52070000D03*
%TD*%
D12*
%TO.C,R41*%
X67310000Y-62230000D03*
D13*
X67310000Y-52070000D03*
%TD*%
D12*
%TO.C,R42*%
X62230000Y-62230000D03*
D13*
X62230000Y-52070000D03*
%TD*%
D12*
%TO.C,R43*%
X57150000Y-62230000D03*
D13*
X57150000Y-52070000D03*
%TD*%
D12*
%TO.C,R46*%
X77470000Y-62230000D03*
D13*
X77470000Y-52070000D03*
%TD*%
D14*
%TO.C,TP7*%
X82550000Y-52070000D03*
%TD*%
%TO.C,TP8*%
X82550000Y-57150000D03*
%TD*%
D12*
%TO.C,R45*%
X138430000Y-46990000D03*
D13*
X138430000Y-36830000D03*
%TD*%
D12*
%TO.C,R39*%
X87630000Y-46990000D03*
D13*
X87630000Y-36830000D03*
%TD*%
D12*
%TO.C,R38*%
X97790000Y-46990000D03*
D13*
X97790000Y-36830000D03*
%TD*%
D12*
%TO.C,R37*%
X107950000Y-46990000D03*
D13*
X107950000Y-36830000D03*
%TD*%
D12*
%TO.C,R36*%
X118110000Y-46990000D03*
D13*
X118110000Y-36830000D03*
%TD*%
D12*
%TO.C,R35*%
X128270000Y-46990000D03*
D13*
X128270000Y-36830000D03*
%TD*%
D12*
%TO.C,R23*%
X92710000Y-46990000D03*
D13*
X92710000Y-36830000D03*
%TD*%
D12*
%TO.C,R22*%
X102870000Y-46990000D03*
D13*
X102870000Y-36830000D03*
%TD*%
D12*
%TO.C,R21*%
X113030000Y-46990000D03*
D13*
X113030000Y-36830000D03*
%TD*%
D12*
%TO.C,R20*%
X123190000Y-46990000D03*
D13*
X123190000Y-36830000D03*
%TD*%
D12*
%TO.C,R19*%
X133350000Y-46990000D03*
D13*
X133350000Y-36830000D03*
%TD*%
D12*
%TO.C,R24*%
X82550000Y-46990000D03*
D13*
X82550000Y-36830000D03*
%TD*%
D15*
%TO.C,U2*%
X26670000Y-41910000D03*
D16*
X26670000Y-44450000D03*
X26670000Y-46990000D03*
X26670000Y-49530000D03*
X26670000Y-52070000D03*
X26670000Y-54610000D03*
X26670000Y-57150000D03*
X34290000Y-57150000D03*
X34290000Y-54610000D03*
X34290000Y-52070000D03*
X34290000Y-49530000D03*
X34290000Y-46990000D03*
X34290000Y-44450000D03*
X34290000Y-41910000D03*
%TD*%
D17*
%TO.C,SW3*%
X11430000Y-72390000D03*
D18*
X16510000Y-72390000D03*
%TD*%
D17*
%TO.C,SW2*%
X29210000Y-72390000D03*
D18*
X34290000Y-72390000D03*
%TD*%
D12*
%TO.C,R8*%
X16510000Y-46990000D03*
D13*
X16510000Y-36830000D03*
%TD*%
D12*
%TO.C,R7*%
X11430000Y-36830000D03*
D13*
X11430000Y-46990000D03*
%TD*%
D12*
%TO.C,R6*%
X44450000Y-46990000D03*
D13*
X44450000Y-36830000D03*
%TD*%
D12*
%TO.C,R5*%
X49530000Y-36830000D03*
D13*
X49530000Y-46990000D03*
%TD*%
D12*
%TO.C,R4*%
X11430000Y-52070000D03*
D13*
X11430000Y-62230000D03*
%TD*%
D12*
%TO.C,R3*%
X49530000Y-52070000D03*
D13*
X49530000Y-62230000D03*
%TD*%
D19*
%TO.C,D3*%
X16510000Y-62230000D03*
D20*
X16510000Y-52070000D03*
%TD*%
D12*
%TO.C,C8*%
X21590000Y-41910000D03*
X21590000Y-46910000D03*
%TD*%
%TO.C,C6*%
X21590000Y-52070000D03*
X21590000Y-57070000D03*
%TD*%
%TO.C,C5*%
X39370000Y-52070000D03*
X39370000Y-57070000D03*
%TD*%
%TO.C,C7*%
X39370000Y-41910000D03*
X39370000Y-46910000D03*
%TD*%
%TO.C,R50*%
X29210000Y-13970000D03*
D13*
X29210000Y-3810000D03*
%TD*%
D21*
%TO.C,RV3*%
X92710000Y-67310000D03*
X95250000Y-69850000D03*
X92710000Y-72390000D03*
%TD*%
D12*
%TO.C,R49*%
X100330000Y-64770000D03*
D13*
X100330000Y-74930000D03*
%TD*%
D12*
%TO.C,R48*%
X128270000Y-64770000D03*
D13*
X128270000Y-74930000D03*
%TD*%
D17*
%TO.C,MES3*%
X80010000Y-72390000D03*
D18*
X85090000Y-72390000D03*
%TD*%
D17*
%TO.C,MES2*%
X107950000Y-72390000D03*
D18*
X113030000Y-72390000D03*
%TD*%
D14*
%TO.C,TP1*%
X153670000Y-31750000D03*
%TD*%
D22*
%TO.C,Y1*%
X168270000Y-19050000D03*
X166370000Y-19050000D03*
%TD*%
D14*
%TO.C,TP6*%
X138430000Y-52070000D03*
%TD*%
D12*
%TO.C,R11*%
X156210000Y-26670000D03*
D13*
X156210000Y-16510000D03*
%TD*%
D12*
%TO.C,R10*%
X156210000Y-13970000D03*
D13*
X156210000Y-3810000D03*
%TD*%
D12*
%TO.C,R9*%
X161290000Y-16510000D03*
D13*
X161290000Y-26670000D03*
%TD*%
D23*
%TO.C,JP1*%
X161290000Y-8890000D03*
D24*
X161290000Y-11430000D03*
%TD*%
D12*
%TO.C,C9*%
X146050000Y-3810000D03*
X151050000Y-3810000D03*
%TD*%
%TO.C,C4*%
X168910000Y-21670000D03*
X168910000Y-26670000D03*
%TD*%
D25*
%TO.C,U10*%
X102870000Y-59690000D03*
D26*
X105410000Y-59690000D03*
X107950000Y-59690000D03*
X110490000Y-59690000D03*
X113030000Y-59690000D03*
X115570000Y-59690000D03*
X118110000Y-59690000D03*
X118110000Y-52070000D03*
X115570000Y-52070000D03*
X113030000Y-52070000D03*
X110490000Y-52070000D03*
X107950000Y-52070000D03*
X105410000Y-52070000D03*
X102870000Y-52070000D03*
%TD*%
D21*
%TO.C,RV1*%
X151130000Y-67310000D03*
X153670000Y-69850000D03*
X151130000Y-72390000D03*
%TD*%
D12*
%TO.C,R47*%
X158750000Y-67310000D03*
D13*
X168910000Y-67310000D03*
%TD*%
D17*
%TO.C,MES1*%
X138430000Y-72390000D03*
D18*
X143510000Y-72390000D03*
%TD*%
D12*
%TO.C,R44*%
X168910000Y-62230000D03*
D13*
X168910000Y-52070000D03*
%TD*%
D12*
%TO.C,R34*%
X143510000Y-62230000D03*
D13*
X143510000Y-52070000D03*
%TD*%
D12*
%TO.C,R33*%
X148590000Y-62230000D03*
D13*
X148590000Y-52070000D03*
%TD*%
D12*
%TO.C,R32*%
X153670000Y-62230000D03*
D13*
X153670000Y-52070000D03*
%TD*%
D12*
%TO.C,R31*%
X158750000Y-62230000D03*
D13*
X158750000Y-52070000D03*
%TD*%
D12*
%TO.C,R30*%
X163830000Y-62230000D03*
D13*
X163830000Y-52070000D03*
%TD*%
D12*
%TO.C,R18*%
X143510000Y-46990000D03*
D13*
X143510000Y-36830000D03*
%TD*%
D12*
%TO.C,R17*%
X148590000Y-46990000D03*
D13*
X148590000Y-36830000D03*
%TD*%
D12*
%TO.C,R15*%
X158750000Y-46990000D03*
D13*
X158750000Y-36830000D03*
%TD*%
D12*
%TO.C,R14*%
X163830000Y-46990000D03*
D13*
X163830000Y-36830000D03*
%TD*%
D12*
%TO.C,R13*%
X168910000Y-46990000D03*
D13*
X168910000Y-36830000D03*
%TD*%
D12*
%TO.C,R16*%
X153670000Y-46990000D03*
D13*
X153670000Y-36830000D03*
%TD*%
D15*
%TO.C,U3*%
X143510000Y-8890000D03*
D16*
X143510000Y-11430000D03*
X143510000Y-13970000D03*
X143510000Y-16510000D03*
X143510000Y-19050000D03*
X143510000Y-21590000D03*
X143510000Y-24130000D03*
X143510000Y-26670000D03*
X151130000Y-26670000D03*
X151130000Y-24130000D03*
X151130000Y-21590000D03*
X151130000Y-19050000D03*
X151130000Y-16510000D03*
X151130000Y-13970000D03*
X151130000Y-11430000D03*
X151130000Y-8890000D03*
%TD*%
D23*
%TO.C,J5*%
X113030000Y-31750000D03*
D24*
X110490000Y-31750000D03*
X107950000Y-31750000D03*
X105410000Y-31750000D03*
X102870000Y-31750000D03*
X100330000Y-31750000D03*
X97790000Y-31750000D03*
%TD*%
D23*
%TO.C,J3*%
X77470000Y-31750000D03*
D24*
X74930000Y-31750000D03*
X72390000Y-31750000D03*
X69850000Y-31750000D03*
X67310000Y-31750000D03*
X64770000Y-31750000D03*
%TD*%
D12*
%TO.C,C3*%
X165735000Y-21670000D03*
X165735000Y-26670000D03*
%TD*%
D15*
%TO.C,U6*%
X125730000Y-11430000D03*
D16*
X125730000Y-13970000D03*
X125730000Y-16510000D03*
X125730000Y-19050000D03*
X125730000Y-21590000D03*
X125730000Y-24130000D03*
X125730000Y-26670000D03*
X133350000Y-26670000D03*
X133350000Y-24130000D03*
X133350000Y-21590000D03*
X133350000Y-19050000D03*
X133350000Y-16510000D03*
X133350000Y-13970000D03*
X133350000Y-11430000D03*
%TD*%
D14*
%TO.C,TP5*%
X59690000Y-31750000D03*
%TD*%
%TO.C,TP4*%
X118110000Y-31750000D03*
%TD*%
%TO.C,TP2*%
X138430000Y-11430000D03*
%TD*%
D15*
%TO.C,U4*%
X49530000Y-11430000D03*
D16*
X49530000Y-13970000D03*
X49530000Y-16510000D03*
X49530000Y-19050000D03*
X49530000Y-21590000D03*
X49530000Y-24130000D03*
X49530000Y-26670000D03*
X57150000Y-26670000D03*
X57150000Y-24130000D03*
X57150000Y-21590000D03*
X57150000Y-19050000D03*
X57150000Y-16510000D03*
X57150000Y-13970000D03*
X57150000Y-11430000D03*
%TD*%
D15*
%TO.C,U5*%
X80010000Y-11430000D03*
D16*
X80010000Y-13970000D03*
X80010000Y-16510000D03*
X80010000Y-19050000D03*
X80010000Y-21590000D03*
X80010000Y-24130000D03*
X80010000Y-26670000D03*
X87630000Y-26670000D03*
X87630000Y-24130000D03*
X87630000Y-21590000D03*
X87630000Y-19050000D03*
X87630000Y-16510000D03*
X87630000Y-13970000D03*
X87630000Y-11430000D03*
%TD*%
D23*
%TO.C,J6*%
X138430000Y-16510000D03*
D24*
X138430000Y-19050000D03*
%TD*%
D12*
%TO.C,C17*%
X82550000Y-6350000D03*
X87550000Y-6350000D03*
%TD*%
%TO.C,C16*%
X113030000Y-6350000D03*
X118030000Y-6350000D03*
%TD*%
%TO.C,C14*%
X52070000Y-6350000D03*
X57070000Y-6350000D03*
%TD*%
%TO.C,C12*%
X67310000Y-6350000D03*
X72310000Y-6350000D03*
%TD*%
%TO.C,C11*%
X97790000Y-6350000D03*
X102790000Y-6350000D03*
%TD*%
%TO.C,C10*%
X128270000Y-6350000D03*
X133270000Y-6350000D03*
%TD*%
D15*
%TO.C,U8*%
X95250000Y-11430000D03*
D16*
X95250000Y-13970000D03*
X95250000Y-16510000D03*
X95250000Y-19050000D03*
X95250000Y-21590000D03*
X95250000Y-24130000D03*
X95250000Y-26670000D03*
X102870000Y-26670000D03*
X102870000Y-24130000D03*
X102870000Y-21590000D03*
X102870000Y-19050000D03*
X102870000Y-16510000D03*
X102870000Y-13970000D03*
X102870000Y-11430000D03*
%TD*%
D15*
%TO.C,U9*%
X64770000Y-11430000D03*
D16*
X64770000Y-13970000D03*
X64770000Y-16510000D03*
X64770000Y-19050000D03*
X64770000Y-21590000D03*
X64770000Y-24130000D03*
X64770000Y-26670000D03*
X72390000Y-26670000D03*
X72390000Y-24130000D03*
X72390000Y-21590000D03*
X72390000Y-19050000D03*
X72390000Y-16510000D03*
X72390000Y-13970000D03*
X72390000Y-11430000D03*
%TD*%
D21*
%TO.C,RV2*%
X120650000Y-67310000D03*
X123190000Y-69850000D03*
X120650000Y-72390000D03*
%TD*%
D12*
%TO.C,R12*%
X168910000Y-31750000D03*
D13*
X158750000Y-31750000D03*
%TD*%
D14*
%TO.C,TP3*%
X123190000Y-31750000D03*
%TD*%
D10*
%TO.C,D1*%
X90170000Y-54610000D03*
D11*
X90170000Y-57150000D03*
%TD*%
D17*
%TO.C,SW1*%
X46990000Y-72390000D03*
D18*
X52070000Y-72390000D03*
%TD*%
D27*
%TO.C,J7*%
X41084500Y-8890000D03*
X40234500Y-8890000D03*
X39384500Y-8890000D03*
X38534500Y-8890000D03*
X37684500Y-8890000D03*
X36834500Y-8890000D03*
X35984500Y-8890000D03*
X35134500Y-8890000D03*
X35134500Y-7540000D03*
X35984500Y-7540000D03*
X36834500Y-7540000D03*
X37684500Y-7540000D03*
X38534500Y-7540000D03*
X39384500Y-7540000D03*
X40234500Y-7540000D03*
X41084500Y-7540000D03*
D28*
X33784500Y-7910000D03*
X42434500Y-7910000D03*
D29*
X42434500Y-4530000D03*
X33784500Y-4530000D03*
%TD*%
D12*
%TO.C,C2*%
X16510000Y-29210000D03*
X11510000Y-29210000D03*
%TD*%
%TO.C,C1*%
X16510000Y-24130000D03*
X11510000Y-24130000D03*
%TD*%
%TO.C,C15*%
X97790000Y-54610000D03*
X97790000Y-59610000D03*
%TD*%
D17*
%TO.C,J1*%
X16510000Y-6350000D03*
D18*
X11430000Y-6350000D03*
%TD*%
D23*
%TO.C,J2*%
X34290000Y-13970000D03*
D24*
X36830000Y-13970000D03*
X39370000Y-13970000D03*
X41910000Y-13970000D03*
%TD*%
D30*
%TO.C,U1*%
X37390000Y-26670000D03*
D31*
X21590000Y-24130000D03*
D32*
X21590000Y-26670000D03*
X21590000Y-29210000D03*
%TD*%
D12*
%TO.C,R51*%
X24130000Y-13970000D03*
D13*
X24130000Y-3810000D03*
%TD*%
D12*
%TO.C,C13*%
X29210000Y-36830000D03*
X34210000Y-36830000D03*
%TD*%
D33*
%TO.C,H1*%
X2112944Y-2112944D03*
X2112944Y-5507056D03*
X1410000Y-3810000D03*
X3810000Y-6210000D03*
X6210000Y-3810000D03*
X3810000Y-1410000D03*
X5507056Y-5507056D03*
D34*
X3810000Y-3810000D03*
D33*
X5507056Y-2112944D03*
%TD*%
%TO.C,H2*%
X6210000Y-74930000D03*
X2112944Y-73232944D03*
X5507056Y-76627056D03*
X1410000Y-74930000D03*
X5507056Y-73232944D03*
X3810000Y-72530000D03*
X2112944Y-76627056D03*
D34*
X3810000Y-74930000D03*
D33*
X3810000Y-77330000D03*
%TD*%
D34*
%TO.C,H3*%
X173990000Y-3810000D03*
D33*
X175687056Y-2112944D03*
X171590000Y-3810000D03*
X172292944Y-5507056D03*
X173990000Y-1410000D03*
X176390000Y-3810000D03*
X175687056Y-5507056D03*
X173990000Y-6210000D03*
X172292944Y-2112944D03*
%TD*%
%TO.C,H4*%
X173990000Y-77330000D03*
X172292944Y-73232944D03*
X175687056Y-73232944D03*
X176390000Y-74930000D03*
X171590000Y-74930000D03*
D34*
X173990000Y-74930000D03*
D33*
X175687056Y-76627056D03*
X172292944Y-76627056D03*
X173990000Y-72530000D03*
%TD*%
D15*
%TO.C,U7*%
X110490000Y-11430000D03*
D16*
X110490000Y-13970000D03*
X110490000Y-16510000D03*
X110490000Y-19050000D03*
X110490000Y-21590000D03*
X110490000Y-24130000D03*
X110490000Y-26670000D03*
X118110000Y-26670000D03*
X118110000Y-24130000D03*
X118110000Y-21590000D03*
X118110000Y-19050000D03*
X118110000Y-16510000D03*
X118110000Y-13970000D03*
X118110000Y-11430000D03*
%TD*%
D23*
%TO.C,J4*%
X148590000Y-31750000D03*
D24*
X146050000Y-31750000D03*
X143510000Y-31750000D03*
X140970000Y-31750000D03*
X138430000Y-31750000D03*
X135890000Y-31750000D03*
X133350000Y-31750000D03*
%TD*%
D19*
%TO.C,D2*%
X44450000Y-62230000D03*
D20*
X44450000Y-52070000D03*
%TD*%
M02*
